<svg id="Layer_1" data-name="Layer 1" xmlns="http://www.w3.org/2000/svg" viewBox="0 0 2004.74 1466.07"><title>logo</title><path d="M1585.36,812.77c-2.07,12.73-3.87,23.75-5.87,36,3.76-1.23,7.35-2.59,11-3.57,2.83-.75,5.84-1.67,8.65-1.37,7.07.76,8.77,3.24,9.13,10.45.5,10-4.57,16.71-12.82,20.72a89,89,0,0,1-20.75,6.8c-7.22,1.49-11.13,4.74-11.76,12.33-.4,4.88-2.45,9.66.3,15.46a68,68,0,0,0,23.65-6.17c11.89-5.71,19.83-.43,19.2,13.06-.31,6.71-2.39,12.64-9.1,15.37-9.77,4-19.07,8.91-30.25,9.22s-18.75-4.68-24-13.18a49.18,49.18,0,0,1-5.85-39.4c3.41-12.81,8.13-25.28,12.12-37.94,3.38-10.72,7.16-21.37,9.52-32.32,1.12-5.2-.65-11-1.12-16.55-.35-4.24-1.47-8.58-.86-12.67s3.67-6.67,8.55-6.48c7.93.3,15.9.49,23.83.19,9.06-.35,17.72-.45,25.8,5.09,3.77,2.58,8.32,4.08,13.91,1.65,2.93-1.28,9,.79,11.61,3.4,6.6,6.62,11,14.52,10.73,24.76-.38,14.91,0,29.87.79,44.77.39,7.43,1.48,15.07,6.84,21.93,1.8-1.69,3.61-2.73,4.47-4.29,9.55-17.55,14.73-36.21,13.51-56.33a14.94,14.94,0,0,0-2.68-7.08c-5.82-8.62-4.07-19.68,4.27-25.33,3.26-2.21,10.66-.46,14.49,3.55,5.34,5.58,7.41,12.36,7.32,20-.11,10.25,0,20.51,0,31.9,1.64-2,3.38-3.35,4.08-5.11,5-12.65,9.83-25.37,14.63-38.09,3-7.93,8.57-10.51,17.25-9.24a52.9,52.9,0,0,0,16.66-.25c10.13-1.81,20.14-4.39,30.09-7a12.9,12.9,0,0,0,6.08-4.21c2.11-2.51,3.53-5.61,5.25-8.45,7.29-12,14.61-15,27.38-9.58a101.23,101.23,0,0,1,20.6,11.81c11.19,8.29,22,17,30.21,28.72,11.85,16.84,14.21,42.92-7.43,58.46-2.12,1.52-4,3.43-6.48,5.62,2.34,3.91,4.58,7.52,6.69,11.2,9.54,16.65,15.84,34.29,16.1,53.72,0,2,.49,4.35-.38,5.91-1.69,3-3.68,6.41-6.48,8.16-3.69,2.29-7.41-.54-9.48-3.41a65,65,0,0,1-6.91-13.13c-4.31-10.4-7.66-21.24-12.6-31.31-3.77-7.67-9.15-14.36-17.08-19-9.57-5.56-14.23-14.29-13.11-25.83,1-10.53,6.18-15.08,17.11-15,4.88,0,10,0,14.6-1.38,9.45-2.93,12-11.75,5-18.59-8.49-8.35-17.84-15.87-27.12-23.37-7.73-6.24-14.54-3.3-17.53,7.23-3.28,11.57-1.64,23,.55,34.47,4.15,21.82,8.11,43.68,11.59,65.61,1.24,7.84,1.58,16.29-5.67,22-2.36,1.87-6,3.33-8.87,3.11-7.84-.6-17.74-14.63-14.46-21.73,6.35-13.72,3-27.54,2.37-41.31-.56-12.6-2.19-25.15-3.53-37.71-.38-3.56-1.42-7.06-2.17-10.66-9-1.92-16,3.23-23.77,4.21-2.59.33-5,2.21-7.6,2.32-20.93.91-24,17.1-28.78,32.55,7.78,4.13,14-.2,20.34-2.21,5.69-1.81,11.11-4.48,16.78-6.36,6.12-2,8.59-.62,10.52,5.28,2.81,8.58.36,18.39-7,23.15-8.55,5.56-17.65,10.28-26.61,15.18-6.28,3.43-12.71,3.64-18.82-.92-3.06,3.46-3.72,6.9-1.26,9.47s6.11,5.63,9.55,6.09c10.6,1.43,20.36-1.6,28.86-8.3,1.77-1.39,3.71-2.57,5.45-3.77,9.78,4.44,10.81,12.86,10.35,21.27-.52,9.28-8,14.14-15.45,16.48a137.91,137.91,0,0,1-32.23,6c-12.51.82-24.68-9.74-29.14-23.08-3.84-11.48-5.35-23.29-4-37.84-2,3.37-3.24,4.66-3.57,6.15-2.39,10.69-8.21,19.57-14.81,28-7.35,9.33-18.52,10.71-26.83,2.44A72.33,72.33,0,0,1,1635,895.31c-6-12.35-8-26-8.89-39.63-.6-8.92,0-17.93-.84-26.82-.64-6.8-2.66-13.46-4.23-20.94-6.87,1.28-12.54,2.56-18.29,3.33S1590.94,812.3,1585.36,812.77Z" transform="translate(-23.87 -15.18)"/><path d="M1401.46,1408c4.14-3.59,11.9-17.69,11.53-22.21-.61-7.44,2.75-12.76,7.66-17.72a31.6,31.6,0,0,0,5.34-7.38c5.8-10.92,11.5-21.88,13.74-34.29,1.34-7.37,5-13.11,12.65-15.75,5.59-1.92,9-5.72,10.42-11.91.53-2.43,3.54-5.25,6-6.14,7.52-2.67,20.77,6.51,21,14.62.35,10.49-.13,21-.2,31.52-.12,16.66-.51,33.33-.14,50,.14,6.07,1.65,12.26,3.43,18.12,2.19,7.22.44,13.37-3.31,19.35-2.32,3.7-5.53,4.76-9.55,2.82-5-2.4-9.49-4.6-10.76-11.26-1.36-7.19-4.52-14-6.83-20.84-13-4.19-21.29-.58-26.61,11.13-3.8,8.39-7.4,16.88-11.7,25-4.47,8.47-11.22,9-17.71,1.86a53,53,0,0,1-4.37-6c-1.18-1.74-2.23-3.56-3.36-5.37-11.73,8.19-17.46,6.75-23.87-6.23-1.38-2.8-1.64-6.41-1.56-9.62.22-9.26.93-18.51,1.31-27.77,0-1.1-.69-2.24-1.49-4.6l-23.84,8.94c-2.46,6.71-3.91,14-1.71,21.35s-2,12.54-5.27,17.74c-3,4.8-8.4,4.61-12.73.82-4.65-4.06-7.47-9.22-7.62-15.33a193.83,193.83,0,0,1,.64-23.12c1.36-14.12,3.47-28.17,4.83-42.29.37-3.91-.73-8-1.3-11.94-.22-1.52-1.2-3-1.22-4.46-.09-5.63.15-11.55,5-15.22,4.63-3.53,9.51-.63,14,1.44,6.67,3.09,10.75,7.6,9.86,15.84-.71,6.65-.14,13.44-.14,21.37,8-1.69,14.83-3,21.64-4.64,3.75-.87,4.26-4,4.49-7.24.75-10.48,1.48-21,2.35-31.43a23.42,23.42,0,0,1,1.47-7.18c3.51-8.29,9.32-10.18,17.09-5.76a50.57,50.57,0,0,1,7,4.5c1.32,1.07,2.92,2.82,2.92,4.28,0,4.88.72,10.43-1.29,14.51-3.77,7.64-3.19,15.68-4.41,23.54a10,10,0,0,0,.95,6.28c3.58,5.91,1.84,11.29-1,16.64-7,13.29-4.9,27.6-4.75,41.69C1400.12,1406.47,1401,1407.24,1401.46,1408Z" transform="translate(-23.87 -15.18)"/><path d="M213.42,1356.2c6.58,8.5,12.77,16.51,19,24.51,9.18,11.84,9.24,28.89,1.53,40.86-5.42,8.4-14.1,11.7-23,14.59-14.44,4.7-29.34,3.44-44.14,3.07-7.07-.18-13.16-4.2-20.51-4.67-7.92-.5-12.9-12.32-11.57-22.77,1.62-12.86,3.69-25.68,4.79-38.58a141.84,141.84,0,0,0,.1-27.64c-.92-8.16-4-16.07-6.06-24.12-.65-2.63-1.41-5.39-1.22-8,.76-10.41,2.42-11.66,12.8-13.29,7.9-1.23,15.75-3,23.51-5,16.35-4.14,32.8-5.85,49.58-3.29A43.86,43.86,0,0,1,240.71,1302c5.57,4.78,7.5,10.08,6.24,18-2,12.65-10,20.06-19.29,26.87C223.21,1350.1,218.44,1352.92,213.42,1356.2Zm2.87-36.85c-15.18-1.37-29.85-.8-44,4.41-3.77,1.39-6,3.72-4.68,8.61.89,3.4.12,7.27-.09,10.92-.35,6.15-.82,12.29-1.29,18.43-.59,7.86-1,15.74-1.93,23.56-.91,7.61-2.81,15.12-3.45,22.74-.54,6.45.43,7.37,6.6,6.92A281.64,281.64,0,0,0,196,1411.6c4.43-.79,8.71-3.13,12.71-5.41,4.46-2.54,5.49-5.83,2.95-10.16-6.83-11.64-15.43-21.82-28.2-27.1-5.06-2.1-8.21-5.59-10.66-9.78-6.33-10.86-1-22.1,11.24-24.27,2.12-.38,4.34-.22,6.45-.64C200.63,1332.23,209.44,1327.81,216.29,1319.35Z" transform="translate(-23.87 -15.18)"/><path d="M1224.92,1076.38c9.5,9.55,18,18.29,23.07,29.74,10.35,23.46,8.58,30.7-8.56,46.66-14,13.08-31.35,19.53-51,17.76-7-.64-14.08-1.74-19.07-7.41-2.86-3.25-6.07-4-9.84-2.71-5.1,1.7-8-.94-11-4.56-5.58-6.83-7.32-13.9-6.1-23.07,2.71-20.43,3.87-41.08,5.45-61.66.42-5.52-1-10.54-6.11-13.91-7.23-4.76-7.23-12.52-6.77-19.69.3-4.78,2.66-9.54,4.61-14.09,3.44-8.05,10.1-10.7,18.51-10.69a48.18,48.18,0,0,0,13.53-1.79c19.25-5.67,37.94-5,56.5,3,11.21,4.81,16.95,14,20.13,24.68,2.86,9.61-3,17.31-9,24.1C1235.1,1067.38,1230.23,1071.37,1224.92,1076.38Zm-49,7.44-2.64.61c-1.22,15.53-2.55,31-3.52,46.6a7.84,7.84,0,0,0,2.66,5.9c5.38,3.94,11,7,18.4,5.47,9.22-2,18-4.75,25.9-10,10.52-6.94,11.59-15.6,3-25.07a39.16,39.16,0,0,0-30.17-13.28c-5.5,0-8.83-1.88-11.26-6.38C1177.57,1086.38,1176.7,1085.12,1175.89,1083.82Zm42.08-44c-11.83-6.54-22.53-3.61-33.1-1.22-2,.45-4,2.49-5.24,4.3-4.17,5.88-6.34,12.24-2.79,20.26C1190.82,1056.35,1207.33,1054.62,1218,1039.85Z" transform="translate(-23.87 -15.18)"/><path d="M1686.9,1105.79c0,4.34.11,7.18,0,10-.29,6.25-.13,12.58-1.19,18.7-1.29,7.48-5.61,11-11.89,11.41-6.91.4-11.2-2.64-13.54-10.6a42.2,42.2,0,0,1-1.79-12.72c.32-15.56,1.72-31.11,1.41-46.64-.21-10-.32-20.32-7.42-29.18-3.31-4.13-4.82-10.27-5.59-15.71-.83-5.91,3.63-10.53,8.5-12.41,21.84-8.41,44.07-15.92,68-10.19a201.92,201.92,0,0,1,27.4,9c15.45,6.14,22.34,20,25.84,34.46,3.92,16.22-7,26.66-19,35.49-4.22,3.1-8.49,6.14-13.56,9.79,2.61,2.16,4.2,3.68,6,4.92,12.94,8.92,25.44,18.42,34.74,31.25a56.56,56.56,0,0,1,8.44,16.73c2.15,7.22-3.39,14.57-11.61,17.41-6.51,2.24-13.89.36-15.89-6.41-6.41-21.7-25.32-29.56-42.09-39.73-5.82-3.52-12.77-5.15-19.14-7.8C1699.29,1111.46,1694.23,1109.07,1686.9,1105.79Zm17.35-36.84c3,1,6,2.41,9.26,3a24,24,0,0,0,9.43.24c8.64-2,15.66-7,21.91-13.11,6.05-5.88,5.79-10.35-1.46-14-18.87-9.5-38.23-11.69-58.26-2.65,1.42,10.5,2.77,20.49,4.29,31.77Z" transform="translate(-23.87 -15.18)"/><path d="M344.9,1080.88c9.73,1.75,18.71-1.23,27.79-2.55,5.59-.82,11.11-2.26,16.73-2.8,6.44-.61,9.16,1.78,10.42,8,2.16,10.77-.39,15.58-11.15,18.66-11.79,3.37-23.8,6-35.71,9-2.91.72-5.84,1.37-8.75,2.08-5,1.23-10,2.48-16.31,4-4.29,6-6.57,13.94-6.63,23.25,10.52,1.34,19.34-2.23,28.34-3.74,11.12-1.87,22-4.93,33.13-7,10.88-2,14.55.44,18.1,10.64,3.38,9.71,1.62,13.51-8.41,15.87-19.09,4.51-38.21,8.94-57.46,12.71-6.4,1.26-13.27.94-19.84.34-8.24-.75-13.75-5.57-16.83-13.44a52.21,52.21,0,0,1-1.64-34.14,267.53,267.53,0,0,1,23.17-58.16,108.57,108.57,0,0,0,11.4-29.7c2.06-9.78,9.16-14.07,17.18-17.65,1.35-.61,3.71-.79,4.73,0,6.6,5,13.47,2.41,20.13.84,16.52-3.9,32.86-8.61,49.47-12.1,7.35-1.55,15.18-1.41,22.76-1.14,6.29.22,9.93,3.84,10.6,8.67.63,4.54-2.75,10.82-7.69,12.63-6.19,2.26-12.66,3.78-19,5.64-15,4.39-29.83,9.4-45,13-17.87,4.29-29.58,15.51-38.33,30.77a12.07,12.07,0,0,0-1.16,2.75A19.53,19.53,0,0,0,344.9,1080.88Z" transform="translate(-23.87 -15.18)"/><path d="M914.3,1007c18.89.09,35.06,8.1,50.21,17.9,19,12.31,36.58,26.55,51.73,43.64a58,58,0,0,1,14.72,37.28c.19,5.19-2.58,11-5.45,15.68-8.16,13.19-20.94,20.7-35.67,23.5a307.1,307.1,0,0,1-43.57,4.57c-13.88.62-27.75,2.3-41.81-.1-6.24-1.06-9.68-3.37-12-8.56a29.28,29.28,0,0,1-2-18.44c2.15-10.38,3.36-21,4.63-31.51,1.3-10.81,1.9-21.71,3.39-32.49.87-6.3-.85-10.49-5.9-14.54-7.9-6.34-8.77-15.63-6.34-24.59,2-7.47,8.87-10.29,16.16-11.27C906.34,1007.5,910.33,1007.31,914.3,1007Zm3.39,115.13c2.4.54,3.35,1,4.26.93,15.54-1.33,31.2-1.93,46.56-4.39a97.72,97.72,0,0,0,28-9.27c9.42-4.74,10.22-12.51,3.22-20.41a203.85,203.85,0,0,0-17.67-17.48c-13-11.45-26.83-21.7-42.77-28.72-4.27-1.87-8.79-4.69-14.61-1.06,6.95,6.78,6.18,14.44,4.22,22.37-2.14,8.66-4.29,17.32-6,26.07C921,1100.5,919.5,1111,917.69,1122.09Z" transform="translate(-23.87 -15.18)"/><path d="M1836.16,1025.3c8.22,14,4.38,28,6.17,42.76,4-.33,8,0,11.44-1.07,7-2.15,13.71-5,20.5-7.72,9.18-3.62,11.71-2.53,14.73,6.57,3.27,9.87.86,16.4-7.86,22-11.59,7.39-23.66,13.41-37.79,13.74-4.7.11-6.65,3-6.64,7.07,0,6.89.56,13.77.91,21.11,10.69,2.07,19.2-2.19,27.92-4.81a39.54,39.54,0,0,0,9-4.17c4.63-2.81,8.83-2.73,12.68,1.13,4.1,4.11,7.21,8.57,5.8,15-2.33,10.57-10.81,14.79-19.42,18.22-6.7,2.66-14.38,2.91-21,5.75-6.94,3-13.73,2.45-20.48,1.4-10.44-1.63-17.07-8.89-20.9-18.11a43.51,43.51,0,0,1-3.39-17.44c.36-11.93,2.07-23.82,3.08-35.74.89-10.56,3.1-21.3,2-31.67-1.32-12.38-4.75-24.73-8.71-36.61-4.78-14.36,1.62-25.22,16.26-27.22,16.11-2.21,32-5.86,48.06-8.57,15.73-2.66,31.51-5,47.29-7.31a34.81,34.81,0,0,1,8-.16c10.57.87,15,9.77,8.85,18.46-3.67,5.2-8.41,9-15.26,10.24-22.2,4.09-44.31,8.62-66.43,13.12C1846.52,1022.14,1842.15,1023.64,1836.16,1025.3Z" transform="translate(-23.87 -15.18)"/><path d="M778.49,1073.84c3.68-.69,7.36-1.41,11-2.08,6.52-1.19,13-2.88,19.58-3.37s9.53,2.66,10.29,9.37a17.74,17.74,0,0,1-11,18.28c-11.37,4.64-22.58,9.71-34.14,13.82-4.35,1.55-9.48.92-15.15,1.36-3.34,7.76-5.72,16.39-1.08,27,6.23-1.49,12.63-2.88,19-4.58,11.51-3.09,22.9-6.7,34.49-9.44,6.66-1.57,11.65,1.63,13.48,7.18,1.61,4.9-1.43,14.84-5.87,16.72-12.56,5.29-25.24,10.32-38,15-5.9,2.16-12.25,3-18.26,4.91s-11.65.89-17.67,0c-9.38-1.41-13.69-7.35-16.49-15.25-4.14-11.65-4.13-23.52-1-35.36,4.83-18,10.59-35.74,19.24-52.31,4.28-8.2,4.85-17.09,6.74-25.76,2.41-11,5.72-14.36,16.67-13.7,13.49.82,25.19-5.6,37.84-8.11,15.31-3,30.46-7,45.82-9.72,8-1.41,15.8-.15,21.75,6.95,3.46,4.12,4.14,8.15,2.59,12.89s-5.42,6.79-10,7c-24.35,1.06-46.48,10.91-69.52,17.13A22.27,22.27,0,0,0,785,1062.1c-2.13,3.43-5.14,6.32-7.76,9.45Z" transform="translate(-23.87 -15.18)"/><path d="M1302.37,1120.54a23.12,23.12,0,0,0-.86,2.37c-4.47,15.27,2.21,19.88,16.23,18,9.87-1.29,19.6-3.76,29.38-5.74,7.12-1.44,10.68.26,13.6,6.61,4.57,10,2.09,18.1-8.22,21.64-16.09,5.53-32.71,9.15-49.94,8.35-13.26-.62-22.82-12.47-27.28-26.93-4.72-15.32-2.17-30.33,1.66-45.23,2.81-10.93,6.68-21.59,9.4-32.54a129.54,129.54,0,0,0,4.05-24.43c.58-11.62,6.75-19.41,17.85-21.4,8.11-1.44,16-3.88,24.11-5.64,13-2.82,25.88-6.08,39-7.91,8.36-1.17,16.6.79,22.16,8.58s2.47,16.21-6.68,18.19a30.67,30.67,0,0,1-7.85,1.07c-14.08-.75-26.69,5.06-39.47,9.33-13.13,4.39-22.59,12.6-24.87,28-2.08,14.08-3.1,13.91,11.21,9.87,8.31-2.34,16.62-4.67,25-6.83s13.06-.66,15.43,4.76c3.53,8.09,1.82,17.59-5,21.07-7,3.61-14.76,5.87-22.19,8.71-5.89,2.25-11.67,4.94-17.73,6.62C1315.53,1118.73,1309.39,1119.32,1302.37,1120.54Z" transform="translate(-23.87 -15.18)"/><path d="M1484.35,900.77c8.18-3.41,13-8.63,16-15.45,9.88-22.56,13.23-45.77,6.39-69.92a14.53,14.53,0,0,1-.18-6.75c2.08-9.76,5.8-12.9,16.41-7.18,7.26,3.91,10.63,10.47,11,18.77a249.92,249.92,0,0,1-5,64.49c-2.8,12.83-6.3,25.76-14.88,36.42-11.78,14.63-25.86,16.34-37.77,7.12-10-7.76-17.28-17.33-21.33-29.38-3.67-11-7.54-21.87-11.94-34.57-1.83,4.28-3,7.07-4.2,9.83-7,15.79-13.94,31.59-21,47.35-2.43,5.41-4.94,10.8-7.83,16-2.62,4.69-6.38,4.78-11,2.29-6.75-3.62-12.42-7.67-12.73-16.26a15.48,15.48,0,0,1,3.44-11,118,118,0,0,0,11-16.45c9.19-16.61,17.69-33.59,21.34-52.44,1.12-5.76,1.06-11.73,2-17.54,1-6.21,1.9-12.54,4-18.42,1.54-4.35,5.74-6.26,10.66-5.17,7.48,1.66,13,6.3,14.81,13.4,4.47,17.17,12.62,32.79,19.15,49.09,3.18,7.93,4.79,16.48,7.33,24.68C1481,893.29,1482.73,896.77,1484.35,900.77Z" transform="translate(-23.87 -15.18)"/><path d="M1707.36,1396.86c-.88,4.41-1.27,7-1.92,9.57-1.47,5.79-3.65,11.26-9.33,14.21-8.67,4.5-18.52-.63-22-11.49-3.3-10.3-2.14-19.43,7.32-26.3a13.93,13.93,0,0,0,3.41-4.27c6.61-11,11-22.74,11.18-35.88.08-7.4.84-14.8,1.54-22.18.92-9.66,5.36-14.19,13-13.62,8.59.64,16.2,8.2,16.38,16,.36,14.84.49,29.69,1.4,44.49a38.6,38.6,0,0,0,8.21,22.34c5.59,7,13.12,8.69,20.33,3.23,5.59-4.23,11.14-9.12,15-14.87,4.76-7.11,7.87-15.35,11.47-23.21,2.89-6.31,1.93-12.91-.23-19.08-1-2.94-3.81-5.45-6.23-7.68a113,113,0,0,0-9.17-7c1.25-10.06,10-19,17.36-17.12,8.21,2,16.23,6,18.67,15,4.14,15.29,6.42,30.82,2.31,46.67-3.55,13.65-9.87,25.84-17.8,37.39-7.13,10.38-17.08,17-28.36,21.66-3.2,1.32-7.29,1-10.91.73-13.63-1-24.9-6.6-33.15-17.76C1713.49,1404.51,1711,1401.5,1707.36,1396.86Z" transform="translate(-23.87 -15.18)"/><path d="M786.33,1371.52c7.85,2.26,15.14,1,22.25-.87,9.65-2.48,13.88-1.53,16.42,4.63,3.17,7.67,0,17-7.19,20.9a19.56,19.56,0,0,1-5.13,2.13c-11.08,2.18-21.82,7.47-33.61,3.34-1.58-.56-5.22.46-5.51,1.45-.66,2.25.16,5,.44,8.25,5.12-.87,9-1.43,12.92-2.22,5.45-1.12,10.83-2.58,16.3-3.57,7.81-1.41,12.24.39,14.18,5.34,2.58,6.59.59,14.65-5.34,18.14-4.74,2.8-10.06,4.66-15.23,6.65-3.74,1.44-7.77,2.12-11.46,3.64-15,6.16-26.27.45-34.36-8-3.4-3.54-4.89-7.57-5.5-12.39-2-15.58,3-29.89,7.29-44.39,2.26-7.66,3.66-15.59,6.1-23.19,2.81-8.77,6.32-17.32,9.56-26,1.85-4.92,6.79-5,10.24-4.52,8.75,1.16,16.4-2.34,24.49-4.07,11.47-2.45,22.92-5.09,34.48-7a40.69,40.69,0,0,1,14.72.34c8.48,1.79,11.62,8.11,10.37,16.68-.82,5.64-4.65,7-8.88,7.92-8.14,1.82-16.45,3-24.54,4.94a229.32,229.32,0,0,0-27.45,8.08c-3.61,1.39-6.83,5.15-9,8.6C790.18,1360.68,788.73,1365.78,786.33,1371.52Z" transform="translate(-23.87 -15.18)"/><path d="M1229.51,847c4.5,0,7,.24,9.47-.07a68.4,68.4,0,0,0,7.78-1.8c5.53-1.35,10.76-1.08,14.25,4.07,3.31,4.89,3.39,15.22-.54,18.74a41.69,41.69,0,0,1-13.4,8c-9.73,3.5-19.85,5.45-30.1,1.62-5.52,8.84-7.32,18-8.86,27.07-1.33,7.91,2.64,11.56,11,10.92,6.62-.5,13.2-1.53,19.8-2.38,2.3-.3,4.57-.94,6.88-1.12,9.35-.73,11.9.79,14.61,8.41s.71,13.9-5.74,18.26c-1.37.92-2.84,2.07-4.38,2.3-12.79,1.88-25.56,4-38.42,5.19s-27.06-14.83-28.43-27.14c-2.32-20.83,3.77-39.48,10.41-58.28,3.54-10,8.16-19.64,12-29.54,2.41-6.2,4.55-12.56,1.74-19.33A15.82,15.82,0,0,1,1207,808c-1.89-13.27,3-19.84,16.24-18.2,10.17,1.25,18.89-2,28.24-3.79,11.71-2.26,23.57-3.8,35.42-5.23a17.94,17.94,0,0,1,14.73,4.84c5.09,4.71,6.54,11.34,3.3,17.19a8.71,8.71,0,0,1-4.51,3.54c-3.43,1.18-7.07,2.42-10.63,2.45-14.27.15-27.32,5.37-40.68,9.27-1.53.45-3.41,1.3-4.17,2.55C1240,828.79,1235.23,837.12,1229.51,847Z" transform="translate(-23.87 -15.18)"/><path d="M582.19,819.87l27.28-2c9.19-.69,14.77,2.73,17.89,11s-1.59,16.4-10.55,17.26c-12.85,1.24-25.71,2.52-38.59,3.2-5.06.27-7.17,2.64-8.13,7-1,4.54-2,9.08-2.92,13.65-1.4,7.26,1.3,10.78,8.72,11.12,6.61.31,13.23.51,19.85.47,10.77-.08,17.24,5.72,21.16,15.09,3.26,7.77-2.18,16-10.63,15.68q-22.86-.87-45.71-2.37c-7.32-.48-12.31-4.66-15-11.43-3.91-9.81-5.64-20.19-3.11-30.34,4.8-19.34,10.65-38.42,16.14-57.58,2.55-8.87,6.25-17.33.13-26.69-2.2-3.37-1-9-1.23-13.62-.29-5.21,4.39-6.78,7-10,4.44-5.51,8.82-5.9,15.48-4.94,6.28.9,13.11-1.17,19.56-2.57,12.66-2.75,25.16-6.31,37.87-8.75a37.1,37.1,0,0,1,15.73.54c3.45.87,6.75,4,9.15,6.91,2.64,3.19,2.08,7.2-1.64,9.54-5,3.14-10.08,6.57-15.62,8.42-13.21,4.44-26.64,8.34-40.14,11.86-8.57,2.23-14.15,6.69-16.25,15.48C586.94,803.7,584.8,810.54,582.19,819.87Z" transform="translate(-23.87 -15.18)"/><path d="M456.92,816.73q11.22-12.48,22.43-25c5.75-6.41,11.79-12.42,14.7-21.07,2.34-7,9.89-8.9,15.38-4,4.72,4.18,11.63,7,11.9,15,.24,6.9-2.51,11.76-7.76,16.27-17,14.58-31.45,31.57-44.8,49.5-1.15,1.55-1.76,3.5-3.12,6.29,3.76,1.31,7.15,2.32,10.4,3.67,8.56,3.57,17.23,6.92,25.52,11s13.95,11.15,18.64,19a23,23,0,0,1,2.44,5.45c1.13,4-1.42,11.37-4.48,13.6-2.64,1.91-9.58,1.1-12.64-2.89-10.46-13.62-25.71-16.84-41.06-20.12-6.43-1.37-12.84-2.79-20.25-4.41-.46,3.54-.92,7-1.37,10.57-.34,2.64-.55,5.31-1,7.92-1.06,5.67-4.06,10-9.8,11.47-4.09,1.07-9.4-2.86-12.21-8.56-3-6.13-4.2-12.35-2.6-19.32q6.27-27.21,11.66-54.64c2.05-10.44,3.5-21,4.91-31.57,1.2-9-.13-17.76-2.92-26.45a28.88,28.88,0,0,1-1.35-12.58c1.2-8.08,7.92-11.18,14.8-6.75s12.64,10.41,12.69,19.13c.06,12.91-.8,25.82-1.33,38.73-.12,2.92-.51,5.83-.78,8.74Z" transform="translate(-23.87 -15.18)"/><path d="M1430.57,1021.25c.65-3,1.19-6.19,2.09-9.31,1.85-6.39,8.71-11.24,13.64-8,16.48,10.94,33.54,3.91,50.43,3.24,10.61-.42,21.26-1.4,31.82-.87,10.92.55,16.34,10.87,11,20.1-1.47,2.55-4.7,5.37-7.41,5.7-25.69,3.14-51.45,5.76-77.19,8.52a16.59,16.59,0,0,1-3,0c-11.47-.8-11.5-.8-11.86,11-.13,4-.13,8-.11,12,0,9.27,5.19,13.68,14.69,12.59,9.22-1.07,18.42-2.28,27.64-3.27,13.12-1.39,19.69,5.94,16.88,18.5-1.06,4.7-3.58,7.68-8.37,8.77-7.12,1.61-14.2,3.38-21.3,5-10,2.33-19.93,4.61-31.06,7.18-1.39,9.59-4.73,19.85-2.79,31,1.43,8.2-4.74,14.71-13.11,15.2-6.23.36-8-.87-10.38-7-4.45-11.26-3.72-22.75-1.87-34.36,3.81-24,6.44-48.11,1.29-72.35a24.14,24.14,0,0,1-.11-9.87C1413.87,1024.39,1417.43,1021.88,1430.57,1021.25Z" transform="translate(-23.87 -15.18)"/><path d="M1638.25,1347.57c4.86-2.48,8.19-3.94,11.27-5.8,6.18-3.72,10.11-2.8,13.23,3.44,1.24,2.48,2.36,5,3.36,7.17-2,11.8-9.14,18.82-19.23,23.63-5.81,2.77-11.33,6.14-16.91,9.36-4.32,2.49-5.67,9.26-3.12,14.9,1.82,4,4.52,5.24,10,3.53s10.91-3.91,16.24-6.18c3.63-1.54,5.87-.78,8.92,2,8.22,7.39,5.74,15.42,2.38,23.54-3,7.36-9.47,9.86-16.92,10.68-5.75.63-11.44,2.3-17.17,2.42-15.75.32-26.93-10.21-30.1-25.25-3.34-15.81.24-30.71,3.45-45.76,1.53-7.18,3.94-14.17,6-21.22,1.18-4,.71-7.11-3.35-9.39a24.34,24.34,0,0,1-12.16-15.64c-2.12-8.51,1.54-14.54,10-14.58,19.79-.09,38.32-6,57.11-10.84,11.17-2.88,15.63,1.65,13.22,13-1.74,8.24-5.71,14.21-14.27,16.46-2.07.54-4,2.06-6,2.36C1642.63,1327.07,1639.93,1335.49,1638.25,1347.57Z" transform="translate(-23.87 -15.18)"/><path d="M1947.67,1481.25c-1.11-6.91.79-12.43,4.58-17.52,13.14-17.63,25.49-35.88,34.75-55.79,9.75-21,19-42.4,14.32-66.72a76.83,76.83,0,0,0-14.77-32.51c-10.21-13.39-21.56-25.12-36.4-33.67-7-4-12.69-10.38-12.49-20.14.23-11.29,7.35-16.63,16.85-10.84a148.41,148.41,0,0,1,25.12,18.76,287.28,287.28,0,0,1,29.45,32c18.3,23.66,23,51,17.23,79.86-6.66,33.74-22.06,63.48-44,89.82C1973.76,1474.81,1962.78,1481.29,1947.67,1481.25Z" transform="translate(-23.87 -15.18)"/><path d="M1527.59,1100.4c1.85-29.26,15.72-51,42.08-63.66,7-3.38,16.08-2.74,24.25-3.5,2.89-.27,6,1.43,8.84,1.12,6.67-.72,10.21,3.87,13.91,7.77s5.93,9,4.73,14.64c-1.28,6.07.42,10.6,4.75,15.09,6.8,7.05,10.23,16.07,13,25.42,3.51,12,.61,22.63-7.2,31.6-14,16.07-31.65,25-53.42,24a113.71,113.71,0,0,1-16.65-2c-23.39-4.5-34.16-26.7-34.26-47.58C1527.58,1102.39,1527.59,1101.39,1527.59,1100.4Zm54.27-35.85a41.55,41.55,0,0,1-4.94,3.17c-11.63,5.1-16.76,15.79-21.54,26.26-2,4.48-1.63,10.37-1.31,15.56.35,5.75,3.85,9.51,9.6,11.35,15.79,5,30.26,2.49,43-7.89,13.58-11.09,12.45-21.47-2.7-30.36-.57-.34-1.21-.56-1.78-.89-6.19-3.6-13.21-6.15-16.1-13.74C1585.55,1066.7,1583.61,1065.94,1581.86,1064.55Z" transform="translate(-23.87 -15.18)"/><path d="M45.87,1386.86c-1-17.61,4.1-32.7,9.69-47.89,8.54-23.2,21.11-43.93,36.33-63.2a60.68,60.68,0,0,1,9.53-10.07,39,39,0,0,0,11.48-14.27c3.62-7.69,11.24-9.66,18.22-4.87,6.78,4.65,13.62,22.13,4.42,31.53-1.47,1.51-3.19,3.44-5,3.79-9.78,1.82-15.54,9.31-20.88,16.1-10.45,13.3-20.73,26.87-27.61,42.63-5.73,13.1-10.89,26.4-12.57,40.61-1.73,14.7,1.17,28.66,12.33,39.25a40.38,40.38,0,0,0,15.77,9c10.33,3.08,21.1,4.65,31.67,6.94,3.46.75,8.62.34,8.25,5.43-.34,4.72-1.52,10-6.76,12.4a16.25,16.25,0,0,1-6.23,1.58c-16.8.33-33.26-.24-48.22-9.93-11.53-7.46-20.59-16.65-25.31-29.54C47.33,1406.56,43.47,1396.6,45.87,1386.86Z" transform="translate(-23.87 -15.18)"/><path d="M309.52,1368.32c4.93-.87,9-1.87,13.21-2.25a27.88,27.88,0,0,1,9.87.43c5.08,1.43,7.61,7.65,6,12.63-3.23,10.28-10.08,15.89-20.84,16.87-4.59.42-9.18,1.86-13.71,1.62-4.08-.22-8.08-2.1-13.1-3.53-.59,1.29-2,3.3-2.44,5.5-1.74,8.77.87,11.46,9.9,9.8,6.67-1.23,13.22-3.14,19.81-4.76,10.14-2.49,15.52,3,13.08,13.23-1.86,7.8-5.57,13.55-14.22,15.16-4.52.85-8.81,2.88-13.27,4.1-27.91,7.64-46-14.73-41-39.25,2.22-11.07,7.72-21.45,11.15-32.32,2-6.39,2.87-13.14,4.31-19.72.58-2.67.45-6.23,2.13-7.77,3.57-3.27,7.82-7,12.29-7.83,17.59-3.16,35.36-5.37,53.1-7.62a38.65,38.65,0,0,1,12,.56c5.89,1.14,8.38,4.32,8.48,9.42.12,6.05-2.48,10.5-7.68,12.09-5.6,1.72-11.33,3-17,4.37-7.2,1.7-14.39,3.44-21.65,4.86C312.43,1355.36,310.24,1360.4,309.52,1368.32Z" transform="translate(-23.87 -15.18)"/><path d="M1910.69,1326.32c7.85,6.17,7.61,12.62,6.75,19.73-2.81,23.29-5,46.66-10.72,69.49-1.58,6.28-6.86,12.27-11.18,12.19-4.68-.1-13.53-6.73-14.58-11.49a25.7,25.7,0,0,1-.29-9.17c2.52-16.79,5.56-33.5,7.8-50.32.88-6.58.15-13.37.15-21.65-4.63,1.28-8.18,1.85-11.38,3.23-4.61,2-8.89,2.71-13-.8-3.32-2.83-8.56-3.79-8.4-10,.07-2.58-1.68-5.22-2.8-8.39-1.8,3-3.08,6.07-5.16,8.42s-4.75,3.67-7.09,5.39c-3.29-1.76-6.42-2.76-8.6-4.79-2.33-2.17-5.44-5.4-5.28-8,.41-6.92-2.85-12.5-4.78-18.57-3.28-10.32,6.85-18,15.35-16,7.17,1.75,15.49,10.71,16.54,18.16.21,1.52.27,3.05.52,6,7.92-1.72,15.6-3.11,23.12-5.08,17-4.45,33.93-9.61,51.7-10.35a44.62,44.62,0,0,1,8.34.19c10.14,1.53,13,6.06,11.26,16-.86,4.85-4,6.81-7.94,8-5.32,1.62-10.76,2.81-16.16,4.18Z" transform="translate(-23.87 -15.18)"/><path d="M859.47,878.52c1.26-8.49,2.19-17,3.84-25.45,2-10.06,3.6-20.39,7.21-29.9,4.07-10.75,8.67-21.62,17.06-30.08,5.65-5.7,13-5.53,20.28-5.42,2.26,0,4.56.84,6.77.6,11.35-1.26,20.87,3.46,25.75,13.89,8.54,18.24,11.86,36.88,5.79,57-4,13.08-7.35,26.16-14.89,37.78a116.19,116.19,0,0,1-28,29.4c-10.19,7.64-26,2.76-32.61-8.65C863.67,905.56,859.64,892.78,859.47,878.52Zm27.26,21.19a57.28,57.28,0,0,0,6.53-2.46,28.43,28.43,0,0,0,4.86-3.46c18.78-16.06,27.25-37.16,29.7-61.15.44-4.37,0-8.52-3.79-12-5.66,4.23-11.27,6.7-18.55,5.21-5.79-1.18-8.56,1.17-10.69,8-3.85,12.35-7.29,24.84-10.58,37.36C881.76,880.54,883.55,889.62,886.73,899.71Z" transform="translate(-23.87 -15.18)"/><path d="M203.83,1044.45c-9.32,1.46-18.46,2.7-27.52,4.36-12.38,2.28-25.92-8.48-25.93-20.87,0-10.09,10.16-18.84,19.38-15,14.09,5.85,27.66,3.13,41.68,1q30.56-4.74,61.3-8.28c6.17-.71,12.55.56,18.83.8,4.57.17,6.21,3,7,7,1.54,7.56-1.8,14.4-9.22,16.23-8,2-16.23,2.77-24.35,4.18-7.53,1.31-15,2.77-22.55,4.13-4.6.82-7.11,3.14-6.61,8.17,2.18,21.76-3.44,42.87-5.39,64.29-1,10.55-1.37,21.16-2.3,31.71a18.24,18.24,0,0,1-2.46,7.44c-3.49,5.85-11.92,7-17.19,2.64-8.41-7-10.36-15.82-8-26.29C205.69,1103.56,213,1072.31,203.83,1044.45Z" transform="translate(-23.87 -15.18)"/><path d="M952.94,869.66c3-16.21,6.15-32.42,9.13-48.65,1-5.53,1.61-11.12,2.57-16.66.68-3.89,1-8.06,6-9.4s9.24-1.06,12.89,2.74c6.14,6.39,8.79,13.2,6.16,22.58-4.64,16.58-8.18,33.49-11.66,50.38-1.12,5.46-.91,11.26-.76,16.9.26,10.28,6,14.16,16.06,11.08a35.89,35.89,0,0,0,19.86-14.35c13.57-20.28,19.72-42.8,18-67.09-.36-5.19-3.65-10.49-6.58-15.12-4-6.32-4.3-8.36.76-13.84,4.85-5.26,9.87-6.42,14.88-2.34,6.78,5.51,12.86,12.11,13.1,21.43.31,12.24.64,24.63-.8,36.75-2.39,20.18-7.17,39.82-17.87,57.62-10,16.65-24.24,26-43.67,27.18-15,.89-26.23-6.86-31.74-20.77C954.35,895.71,953.74,883,952.94,869.66Z" transform="translate(-23.87 -15.18)"/><path d="M1062.24,1318.65a48.32,48.32,0,0,1-7,24.27c-13.24,22.54-19.56,47.17-22.81,72.9-1.12,8.8-3.71,17.53-6.62,26a15.2,15.2,0,0,1-7.76,8.22c-3.81,1.54-10.87-4.22-12.66-9-.55-1.43-1.47-3.19-1.07-4.43,2.48-7.71-.37-15.7,2.4-23.71,3-8.6,3.18-18.18,4.53-27.34.49-3.34-.86-5.36-4.43-5.6-2.15-.14-4.31-.26-6.44-.59-11.71-1.81-19.39-9.81-27.1-17.76-3.4-3.5-6.43-7.54-10.35-10.32-8.56-6.07-9.41-24-4.23-32.19.72-1.15,2.45-1.84,3.86-2.33,8.13-2.85,21.4,3.23,24.81,11.28,2,4.83,3.72,9.86,6.2,14.46,3.31,6.15,6.13,6.69,13,6,13.68-1.45,18.48-11.71,23.22-22.24,2.28-5.08,4.38-10.26,7-15.16,2.16-4,4.44-8.27,10.39-7.68,6.42.64,11.24,3.37,13.66,9.47A33.17,33.17,0,0,1,1062.24,1318.65Z" transform="translate(-23.87 -15.18)"/><path d="M511.4,1401.78c-5.37.47-9.36.71-13.32,1.19-13.23,1.6-22.22,9.73-30,19.66-1.33,1.7-2.34,3.71-3.87,5.19-3,2.89-8.19,3.34-11.13,1.29-9.2-6.42-11.56-20.78-5-29.8,4.88-6.72,9.3-13.8,14.48-20.27,5-6.23,10.91-11.71,16-17.85,3.53-4.24,6.4-9,9.57-13.56,1.57-2.25,2.85-4.79,4.78-6.67,4.56-4.48,9.36-8.74,14.2-12.92,4-3.46,8.55-2.9,13.1-1.15,10.23,3.93,14.31,12,14.9,22.33.18,3.08,0,6.18,0,9.26-.11,5.88-.52,11.47,5.94,15.23,3.78,2.19,4.38,6.73,1.62,10.65-6.67,9.49-5.93,19.5-3.21,30.08,2.08,8.08-.52,15.82-4,23.18-1.5,3.16-4,3.71-6.94,2.39-5.54-2.5-10-5.9-11.1-12.54-.94-5.78-2.27-11.5-3.55-17.21C513.23,1407.63,512.35,1405.06,511.4,1401.78Z" transform="translate(-23.87 -15.18)"/><path d="M210.2,872.25c13.91-2.49,25.9-5.09,38-6.63,8.19-1,16.58-.82,24.86-.67,2.87,0,5.79,1.4,8.54,2.51,8.64,3.49,12.3,8.06,11.65,14.16-.59,5.57-4.37,8.21-14.75,8.89-20.65,1.34-41,4-60.66,10.91-5,1.75-9.78,4.09-14.71,6-9,3.58-12.23,2.57-17.3-5.77-4.65-7.65-6.79-15.56-3.75-24.64q15.21-45.34,29.83-90.88c5.05-15.72,11.95-30.83,13-47.84.73-12.17,9.76-15.5,19.78-8.09A40.29,40.29,0,0,1,254,740.35c1.19,1.8,1.12,5.24.29,7.44-6.09,16.14-12.82,32.05-18.78,48.25-6.88,18.69-13.27,37.57-19.68,56.44C213.7,858.66,212.22,865,210.2,872.25Z" transform="translate(-23.87 -15.18)"/><path d="M1118.33,909.61c3-3.65,5.93-6.31,7.83-9.56,8.4-14.36,15.37-29.34,20-45.42,4.05-14.17,3.46-28.26.52-42.44-.26-1.29-.93-2.51-1.11-3.81-.8-5.55,1.92-9.89,6-12.88,4.2-3.09,7.71,1,10.54,3.21a23.47,23.47,0,0,1,9.17,17.1c1.76,22.39.42,44.52-7.12,65.89-3.31,9.38-7.17,18.57-11,27.75a85.82,85.82,0,0,1-20.59,29.08c-10.41,9.91-24.11,7.53-31.49-5.21-9.23-15.93-9.82-33.41-10.21-51.05-.25-11.6-.74-23.21-1.62-34.78a11.75,11.75,0,0,0-4-7.41c-10.35-8.33-8.72-20.18-9.12-31.12-.19-5.17,10.3-9,15.63-5.63,8.72,5.45,15.84,11.55,18.36,23.17,5.21,24,3.76,48.23,5.65,72.33a52,52,0,0,0,.58,5.85C1116.53,905.93,1117.25,907.08,1118.33,909.61Z" transform="translate(-23.87 -15.18)"/><path d="M1169.38,1359.21c.36,8.9-.23,18,1.3,26.65,2.51,14.16,7.16,19.38,23.44,11.54,13.18-6.34,20.27-18.65,25.92-31.59a46.86,46.86,0,0,0,3.6-12.38c.65-4.79-1.19-6.65-6.17-7-7.79-.48-11.4-6.47-15.21-11.69-2.29-3.14,1.57-11.16,6.25-14.29,11-7.39,21.24-5.93,31.84,5.88,5.29,5.89,7.27,13.47,7.87,21.39,1.24,16.49-4.42,31.22-12.64,44.8-7.17,11.85-15.13,23.52-27.83,30.47-7,3.85-14.27,7.31-22.73,6.89-19-.94-33.65-12.86-38.57-31.57-3.78-14.39-6.3-28.93-4.46-43.82a69.41,69.41,0,0,1,4-15.11c1.65-4.54,6.12-5.75,10.81-3.61C1168,1340.91,1171.22,1346.54,1169.38,1359.21Z" transform="translate(-23.87 -15.18)"/><path d="M809.78,868.45c-13.29-2.89-17.57-11.85-20.22-22.36-3.33-13.19-6.49-26.44-10.66-39.36-1.67-5.17-6-9.46-8.87-14.26-2-3.38-4.21-6.8-5.49-10.49-2.62-7.56-1-11.33,5.56-15,6-3.33,12.2-2,16.94,2.73,8.29,8.21,10,19.2,13,29.57,2.38,8.28,3.55,16.9,5.33,25.36,1.73,8.18,3.93,16.14,12,21.62,1.23-1.6,2.8-2.93,3.48-4.61,6.77-16.93,13.65-33.81,19.93-50.91,2.86-7.78,4.44-16,6.62-24,2.33-8.57,5.54-10.1,13.83-7.07,11.75,4.29,14.46,16.53,10,27.51-7.8,19.38-16.66,38.34-24.51,57.71-6.6,16.28-12.77,32.77-18.36,49.43-2.51,7.48-3.06,15.61-4.63,23.42-1.09,5.47-1.25,11.83-8.75,12.77-7.12.89-9.49-4.52-12.34-9.58a24.82,24.82,0,0,1-2.19-21.06c2.4-7.25,4.38-14.64,6.53-22C807.87,875.1,808.67,872.29,809.78,868.45Z" transform="translate(-23.87 -15.18)"/><path d="M507.87,1056c7.55,9,15.2,18,22.63,27.09,10.24,12.58,16.53,27.27,21.07,42.59,3.55,12-4.73,26.2-17.32,29.88-10,2.92-20.21,6.54-30.94,1.15-4.24-2.13-9.6-1.88-14.2-3.46-8.3-2.84-15.51-15.89-13.85-24.19.87-4.36,3.5-6.12,8.06-4.82,3.83,1.1,7.4,3.42,11.27,4a117,117,0,0,0,20.72,1.36c8.33-.31,10.7-4.37,6.54-11.82-4.49-8-10-15.54-15.36-23.09-9.17-12.94-23.28-18.24-37.33-23.58-9.37-3.55-11.74-6.86-11.74-15.9,0-11.88,3.77-18.72,12.31-21.68,14.11-4.89,28.41-9.27,42.38-14.53,8.06-3,14,.23,18.35,5.71,4.58,5.72,7.17,12.93,4.75,20.58-1.51,4.8-9,8.66-14.53,8.1C513.71,1052.67,513.71,1052.67,507.87,1056Z" transform="translate(-23.87 -15.18)"/><path d="M620.52,1113c2.89-19.47,5.44-37.74-1-56.06-4.75-4.06-9.77-3.57-15.72-2.19-5.56,1.27-11.75.65-17.52-.14-6.31-.86-8.54-7-9.31-11.76-1-6-.52-12.87,5-17.45a8.77,8.77,0,0,1,5.57-1.5,167.14,167.14,0,0,0,44.42-4.43c8.31-1.88,17.14-1.69,25.75-2,16-.63,31.94-1.32,47.91-1.28,9.44,0,15.1,5.26,16.19,13.12,1.27,9.26-4.23,14.71-14.26,14.44-9-.24-17.92-.46-26.86-.18-6,.19-11.92,1.2-17.86,2-7.54,1-10.23,2.65-11.13,10.26-1.52,12.83-1.93,25.78-2.8,38.68-.67,9.92-.39,20-2.27,29.72-1.71,8.77-5.35,17.36-16.42,18.9-3.67.51-6.09-.62-8.95-2.89-6.7-5.31-8.89-13.13-12.16-20.29-1.84-4,1.2-7.25,6.1-7.41A54.05,54.05,0,0,1,620.52,1113Z" transform="translate(-23.87 -15.18)"/><path d="M1544.85,1390c10.24-11.51,16-24.33,20.8-37.68a77.68,77.68,0,0,0,2.85-10.75c1.19-5.91,1.34-11.29-3.79-16.18-4.63-4.41-4-8.74.2-14s7.84-5.83,13.73-4c10.64,3.37,14,10.87,14,21.2-.1,14.26-.09,28.67-5.84,41.89-5.27,12.12-12,23.6-18.33,35.26-2.77,5.12-5.47,10.43-9.14,14.88-8.26,10.07-23.77,12.59-31.6-3.38-6.81-13.9-12.57-28-11.78-44.29.51-10.67-1.62-21.49-2.68-32.23-.33-3.38-1.58-6.76-1.42-10.09.61-12.82,4.09-21.47,20-14.79,9.66,4,12.43,9.35,10.73,20.52-2.38,15.69-1.71,31.42-.18,47.13C1542.6,1385.46,1543.8,1387.31,1544.85,1390Z" transform="translate(-23.87 -15.18)"/><path d="M644.17,1378.55c-2.94-1.88-3.93-3-5-3.08-7.5-.24-10.15-6.22-13-11.37-4.28-7.61-.31-14.87,8.25-16.72,11.74-2.53,19.6,4.26,27,11.38,11.67,11.25,10,25.53,3.59,36.39a46.76,46.76,0,0,1-21.63,19.37c-19.07,8.72-38.83,12.78-59.59,7.77-18.3-4.42-30.36-24.33-26.31-43,1.89-8.72,4.23-17.35,6.66-25.94,2.14-7.57,6.61-9.71,14.14-7.24,9.61,3.14,13.8,11.23,10.79,21.15-1.43,4.72-3.59,9.25-4.6,14-2.17,10.19-.12,13.08,10,14.22,13.91,1.56,27.15-1.42,39.51-7.69C637.59,1386,640.21,1382.25,644.17,1378.55Z" transform="translate(-23.87 -15.18)"/><path d="M1061.87,1380c2.15-16.43,10.27-35.21,30.23-47.24a15.84,15.84,0,0,0,1.55-1c4.62-3.49,9-8.88,15.5-5.83,7.77,3.66,15.94,7.78,19.07,16.54,5.64,15.77,6.69,31.48.34,47.79-4.71,12.09-11.07,22.15-22.57,28.13-14.55,7.57-27.41,6-37.07-8.42C1062.42,1400.22,1061.76,1398.15,1061.87,1380Zm44.23-4.47c-14.65-4.91-16.24-4.07-16.94,8.16-.12,2.18,1.24,4.43,1.91,6.65,2.38-.92,5.47-1.22,7-2.91C1101.05,1384.07,1103.16,1380,1106.1,1375.48Z" transform="translate(-23.87 -15.18)"/><path d="M713,1338.71c2.61,6.18-5.43,11,1.36,15.74l-3.42,5.61c1.46,1.87,2.89,3.83,4.46,5.67,6.39,7.53,13.29,14.67,19.15,22.59,11.46,15.49,5.7,34.57-12.54,40.2-9.33,2.88-19.35,3.67-29.11,5-10.27,1.37-17-4.19-21.84-12.5a48.08,48.08,0,0,1-4.18-10.29c-1.65-5.49,1.82-9.36,7.52-7.9,10.88,2.78,21.48.18,32.17-1,.78-.09,1.48-1,2.74-1.9-1-5.11-4.46-8.46-8.49-11.26-6.53-4.52-13.05-9.1-19.89-13.12s-11.07-9.63-10.62-17.11c.57-9.42,4.49-17.37,15.12-19.76,5.1-1.14,10.07-2.84,15.14-4.14C706.41,1333,710.85,1335.05,713,1338.71Z" transform="translate(-23.87 -15.18)"/><path d="M415.77,1392.05c5.25-.23,10.5-.75,15.74-.63,8.69.2,11.45,5,8.06,13-3,7.15-8.3,11.36-15.91,12.25-8.57,1-17.17,1.83-25.78,2.26-13.19.67-22.18-6.3-28.41-17.12-5.37-9.33-5.94-19.6-2.88-29.65,4.8-15.71,14.17-27.23,31.28-30.76,6.55-1.36,12.91-4.81,19.66-.67,14.92,9.14,14.34,26,4,32.87-3.66,2.43-7.55,3.67-12.23,1.86-5.3-2-15.79,2.65-18.17,7.48-2.07,4.2,1.07,8.9,7,9.42s11.73.11,17.6.11Z" transform="translate(-23.87 -15.18)"/><path d="M374.23,781.25c.8,20-1.48,39.81-5.06,59.45-2.08,11.4-4.26,22.82-7.22,34-1.57,6-4.95,11.44-7.43,17.17-2.07,4.78-6.11,6.25-10.58,5.19s-6.17-5.37-5.92-9.39c.52-8.59,1.59-17.16,2.89-25.67,3.17-20.66,6.74-41.26,9.88-61.92a87,87,0,0,0-1.8-35.6,55.86,55.86,0,0,1-1.11-6.83c-.63-4.66.46-8.62,4.87-11s7.13.87,10.61,2.84c7.56,4.3,10.72,10.32,10.23,18.85C373.35,772.61,374,776.94,374.23,781.25Z" transform="translate(-23.87 -15.18)"/><path d="M1050.87,757.66c-.3-2.29-1.65-7.7,4.3-9.48,5.36-1.6,10.71.31,14.32,4.67,9.83,11.88,11.67,25.56,7.85,40.16-1.2,4.55-4.17,7.62-9.23,7.56-4.89-.06-9.51-3.32-9.75-7.15-.64-10.14-5.26-18.95-7.44-28.49C1050.57,763.36,1050.87,761.64,1050.87,757.66Z" transform="translate(-23.87 -15.18)"/><path d="M501.57,405.44a70.48,70.48,0,0,0-4.55,7.31c-6.09,12.93-12.19,25.86-18,38.93-7.39,16.73-14.5,33.58-21.65,50.41a38.42,38.42,0,0,0-2.36,7.62c-1.22,6.45.16,8.37,6.83,9.23,24.7,3.19,49.37,6.76,74.14,9.17,12.49,1.21,25.19.42,37.78.07,2.78-.07,5.68-1.78,8.23-3.24,10.33-5.92,18-4.59,24.49,5.4,3.26,5,8.11,10.19,4.72,17.25-4.5,9.36-10.81,16.76-21.51,19.18-19.78,4.49-39.53,1.85-59.36.11-24.74-2.16-49-8.29-74-8.28-8.31,0-17.23-2.73-24.77-6.46-6.65-3.3-11.21-10.26-13.67-17.66-4.15-12.49-3.23-25.17,1.6-37.1,6.83-16.9,14.49-33.48,22.2-50,9-19.27,18.39-38.34,27.61-57.49,7.76-16.12,15.83-32.09,23.19-48.39,9.7-21.47,18.86-43.18,28.16-64.83.9-2.09,2-4.68,1.53-6.65-1.86-7.34,1-13.69,3.22-20.27,2.81-8.51,10.52-13.22,18.47-9.17,12.51,6.38,24.77,2.56,37.06,1.06,11.17-1.37,22.17-4.16,33.28-6.17,15-2.72,30.07-5,45-8,8.35-1.7,15.83.8,23.22,3.45,6.56,2.36,6.87,9.54,8.5,15,1.42,4.79-2.89,8-6.71,10-5.26,2.75-10.76,5.42-16.48,6.85-27.7,6.95-55.49,13.52-83.28,20.1a147.73,147.73,0,0,1-15.66,2.73c-10.11,1.28-16,8.06-19.95,16.29-13.2,27.89-25.85,56-38.71,84.1-.68,1.47-1.29,3-2,4.59,17.29,2,30.45-7.41,44.55-14.08,11.12-5.25,22.18-10.84,33.77-14.81,8-2.73,16.86-3.62,23.8,4,10,11,7.55,25.28-6,31.6-9.59,4.46-19.7,7.82-29.22,12.4-8.95,4.31-17.43,9.59-26.14,14.41-6.9,3.83-13.52,8.47-20.87,11-3.53,1.23-10.65-.1-12.34-2.72-5.22-8.11-13.33-15.25-12-26.57Z" transform="translate(-23.87 -15.18)"/><path d="M1879,422.55c3.57,8.72,6.71,16.32,9.8,23.95,2,4.92,4,9.84,5.85,14.83,5,13.69,2.48,27.14-2.89,39.83-2,4.77-7.07,8.9-11.68,11.83-27.47,17.41-57.16,24.93-89.43,17.45a66.86,66.86,0,0,1-40-26.19c-2.15-2.94-4.94-5.4-7.18-8.28-2-2.59-4.25-5.22-5.38-8.22-6.46-17.15-11.78-34.69-13.59-53-1.75-17.69,1-35.14,4.82-52.4,6.82-30.37,18.62-58.81,34.06-85.71,12.45-21.69,29-39.42,51.74-50.8,4.46-2.24,8.66-5,13.11-7.28,15.33-7.81,30.7-8,45.5,1.09,15,9.19,14.83,30.18,2.37,38.44a15,15,0,0,1-8,2.64,48.75,48.75,0,0,1-14.67-2c-7.27-2.46-14.17-1.73-20.1,2.22-8.76,5.84-17.55,12-25,19.38-10.14,10.12-16.31,23.08-23.21,35.68a233.9,233.9,0,0,0-24.76,71.2c-3.08,16.89-3.13,34,2.7,51.2,3.22,9.51,5.79,18.94,12.29,26.57,2.85,3.35,6.83,6.54,10.92,7.88,23.45,7.63,45.31,2.21,66-9.61,7.08-4.05,8.94-10.27,6.82-18.65-1.3-5.13-2.52-10.27-3.92-15.38-2.47-9-8.3-15.74-15.31-21.52-1.16-.95-3.07-1.12-4.68-1.36-16.66-2.46-25.29-11.08-26.79-28-2-22.41,6.76-27.38,26.23-23.42,8,1.63,15.72,4.49,23.71,6.11a34.58,34.58,0,0,0,11.91-.2q49.31-7.59,98.56-15.53c16.68-2.69,25.64,5.49,33.66,17.8,3.67,5.64-2.25,16.58-9.82,19.31a43.56,43.56,0,0,1-7.79,1.77c-14.42,2.36-28.88,4.49-43.28,7C1921.38,414.7,1901.18,418.51,1879,422.55Z" transform="translate(-23.87 -15.18)"/><path d="M74.87,104.92c-9.63,0-19.28.38-28.9-.08-16-.78-22.91-9-22-25.43a83,83,0,0,1,.9-10.84c1.19-6.24,5.06-9.19,11.29-8.52,4.62.5,9.44,1,13.7,2.6,22.65,8.77,45.75,5.77,68.83,3.08C138.74,63.39,158.81,61,178.8,58s39.78-7.13,59.78-9.79C253,46.31,267,42,282,42.75c10.78.52,21.88-1.71,32.56-4,15-3.23,30.2-2.78,45.3-4.15,8.16-.74,16.21-2.66,24.34-3.84,14.36-2.09,28.73-4.21,43.14-6,13.8-1.69,27.63-3.18,41.49-4.32,22.82-1.88,45.65-3.95,68.53-4.92,17.54-.74,35.16-.22,52.72.33,9.29.29,18.76.92,27.74,3.07a99.43,99.43,0,0,1,24.84,9.77c9.26,5.15,9.34,21.95.55,26.78-2.65,1.45-6.39,1.77-9.5,1.42C605.86,53.77,578,51.52,550,54.43c-6.26.66-12.63.14-18.94.38-16.89.64-33.81,1-50.66,2.25-11.24.83-22.36,3.13-33.57,4.46-31,3.68-62,7.12-93,10.82-19.43,2.32-38.83,4.91-58.24,7.44q-49.94,6.54-99.86,13.15c-29.66,3.94-59.26,8.29-89,11.71-10.51,1.21-21.28.19-31.93.19Z" transform="translate(-23.87 -15.18)"/><path d="M1454.1,347.64c-1.18,7.74-2.64,15.44-3.47,23.22-.73,6.9-.45,13.92-1.15,20.83-1.46,14.21-3.34,28.38-4.93,42.58-2.33,20.69-7.66,40.77-12,61-1.1,5.05,1,10.18-2.25,15.41-6.13,10-14.49,13.86-25,9-7.46-3.43-13.24-9.13-15.89-17.1-2.34-7.07.92-13.38,3.94-19.59,2.59-5.31,6-10.47,7.35-16.09,4.66-18.68,9.18-37.44,12.6-56.37,2.65-14.67,3.59-29.66,5.27-44.5,2.27-20.15,4.23-40.34,6.89-60.44,1.34-10.16,3.74-20.19,6-30.2,1.52-6.75,6.87-10.08,13.57-8,13.19,4.12,24,11.64,28.8,25.19,6.41,18.13,11.85,36.6,18.19,54.76,8,22.88,16.62,45.21,33.28,64,9.91,11.15,19,23,30.13,33,1,.89,2,1.83,3,2.62,14.15,10.51,23.35,8.78,28.51-7.69a230.43,230.43,0,0,0,9.61-47.71c1.94-21.47,1.48-43.15,2-64.75.24-10,1.63-20.13.07-29.82a40.8,40.8,0,0,1,1.38-19.32,21.12,21.12,0,0,1,6.79-9.39c5.31-4.28,8.69-3.71,14.18.54,10.79,8.35,16,18.54,14.21,32.82s-1.37,29-2.21,43.48c-.54,9.25-.86,18.61-2.59,27.68-2.22,11.59-1.1,23.09-1.26,34.67-.36,25.18-5.21,49.49-17.8,71.6-3.18,5.58-8.12,10.52-13.2,14.56-8.78,7-18.63,6.31-27.9.73a137.52,137.52,0,0,1-18.54-13.11c-12-10.3-23.71-21-35.32-31.74-12.3-11.41-19.87-26.4-29.61-39.76-12.57-17.24-18.87-37.28-27.05-56.51-.86-2-1.88-4-2.83-6Z" transform="translate(-23.87 -15.18)"/><path d="M773.19,323.11c17.3,10.32,33.38,19.69,49.24,29.41,27.91,17.11,53.26,37.45,74.32,62.58,14.36,17.14,25.64,36.23,31.34,58.28,7,27.17-12.69,50.71-33.79,54.13-13.07,2.12-25.89,5.13-39.29,4.87q-37.78-.74-75.6-.57c-7.94,0-15.92,1.29-23.81,2.47-4.37.65-7.86-.12-10.89-3.27-3.82-4-9.05-7.28-11.25-12-5.38-11.53-3.22-15.4,7.78-18.79a143,143,0,0,1,31.35-5.76c19.87-1.49,39.83-1.81,59.75-2.6,10.26-.4,20.61-.08,30.77-1.35,8.71-1.09,17.32-3.56,25.74-6.19,5.58-1.75,8-9.24,4.65-16.38-4.19-9-8.58-18.24-14.79-25.81a226.32,226.32,0,0,0-48.35-44.29c-25.41-17.2-52.44-31.1-80.24-43.75-7.81-3.55-15.76-6.81-23.37-10.74-3-1.56-6.46-4.05-7.75-7-4.4-9.95-5.82-20.4-1.8-31,1.72-4.55,4.34-7.5,9.7-8.73,25.81-5.94,48-20.69,72.22-30.58,4.13-1.68,7.44-5.4,11.07-8.26,1-.82,1.79-2,2.77-2.88,10.92-10.14,16.38-9.89,26.51,1.17,2,2.21,4,4.47,6.15,6.55,6,5.74,7.26,14,2.88,21.19-2.07,3.38-4.76,6.37-7.06,9.61-2.14,3-5.06,3.58-8.59,4a53.38,53.38,0,0,0-14.17,3.66c-12.87,5.36-25.59,11.11-38.28,16.89C778.1,319.06,776.19,321,773.19,323.11Z" transform="translate(-23.87 -15.18)"/><path d="M1058.35,285.3c10.65,14.17,12.94,30,14.34,45.68a342.3,342.3,0,0,1-1.16,74.48c-1.75,13.51-2.18,27.19-4,40.68-2.4,17.76-5.59,35.42-8.46,53.12-.82,5-2.43,9.47-7.06,12.61-8.27,5.61-11.07,3.82-18.08-2.95-10.53-10.16-10.92-20.37-6.94-33.36,3.59-11.67,4.52-24.14,6.8-36.23a415.6,415.6,0,0,0,7.38-83.17c-.24-16.39-.09-32.48-7.3-47.82-2.59-5.53-3.14-12-4.76-18.65-7.2.75-14.71,1.58-22.22,2.3a114.83,114.83,0,0,1-39.5-2.6c-3-.77-6.77-2.43-8.26-4.86-5.33-8.71-11-17.45-10.2-28.53.68-9.5,10.45-16.72,18-11.18,16.39,12,33.93,7.25,50.87,5.17,36.62-4.51,73-10.92,109.55-15.93,18.77-2.57,37.77-2.14,56.7-1.34,11.69.5,20.45,7.37,28.88,14.16,5.57,4.5,0,17.77-7.52,19.82-14.33,3.92-29,2.52-43.57,3.42-5.62.34-11.3.39-16.85,1.21-26,3.81-51.89,7.83-77.82,11.84C1064.56,283.57,1062,284.39,1058.35,285.3Z" transform="translate(-23.87 -15.18)"/><path d="M287.28,113.21c.61,16.88,2.08,33.78,1.58,50.63s-2.67,33.76-4.66,50.57c-2.3,19.46-5,38.88-7.92,58.26-2.16,14.45-5,28.79-7.42,43.2-3.43,20.31-6.67,40.66-10.21,60.95-2,11.45-4.49,22.8-6.62,34.23-3.16,16.95-5.55,34.08-9.44,50.86a383.86,383.86,0,0,0-9.36,61.93c-.45,7.08-1.63,14.16-8.63,18-2,1.11-6,1.93-7.21.83-7.37-6.8-17.77-11.36-18.82-23.29-.25-2.89-1.23-5.9-.72-8.64,3-16,6.35-31.92,9.52-47.89q6.1-30.8,12.09-61.6c6-31,12.22-61.89,18.06-92.88,2.64-14,4.62-28.19,6.87-42.29,2.36-14.77,5-29.51,7-44.33,2.88-21.73,5.61-43.48,7.71-65.29.94-9.78.55-19.47-2.62-29.38-2.16-6.73-.44-15.07.93-22.44,1-5.18,8.14-8,14.1-5.88,5.22,1.9,10.07,5,14.68,8.18,1.51,1,1.76,3.93,2.58,6Z" transform="translate(-23.87 -15.18)"/><path d="M1310.29,333.3c-4.5,40.59-9.28,81.16-13.39,121.8-1.94,19.13-2.85,38.38-3.66,57.61a16.92,16.92,0,0,1-4.89,11.49c-5.79,6.23-11,6.42-18.37,2-9.92-6-14-14.33-12.65-25.88,3-25.07,5.4-50.2,8.39-75.27,4.12-34.6,8.75-69.18,8.08-104.09-.3-15.84-1.09-31.92-9.66-46.36-4-6.7-2.29-14.31-.42-21.38,1.16-4.38,10.52-6.67,15.48-4.25,11.92,5.8,20.19,14.28,22.18,28.16,1.27,8.83,4.25,17.41,5.48,26.24,1.36,9.84,1.61,19.84,2.35,29.77Z" transform="translate(-23.87 -15.18)"/></svg>